# xmcd
#
# Track frame offsets:
#	183
#	13250
#	28298
#	40980
#	53225
#	68015
#	82458
#	92335
#	104495
#	115055
#	125120
#	134973
#	147318
#	158818
#
# Disc length: 2262
#
# Revision: 3
# Processed by: cddbd v1.5.1PL0 Copyright (c) Steve Scherf et al.
# Submitted via: audiograbber 1.81.02
# Normalized: r1:TSWAP
#
DISCID=d408d40e
DTITLE=Various Artist - Best Of Country Vol.1
DYEAR=1900
DGENRE=
TTITLE0=Hank Williams - Jambalaya (On The Bayou)
TTITLE1=Willie Nelson - Face Of A Fighter
TTITLE2=Patsy Cline - I Fall To Pieces
TTITLE3=Johnny Cash - I Walk The Line
TTITLE4=Gene Autry - Tumbling Tumbleweeds
TTITLE5=Freddy Fender - Since I Met You Baby
TTITLE6=Hank Locklin - Please Help Me I'm Falling
TTITLE7=Hank Williams - Your Cheatin' Heart
TTITLE8=Willie Nelson - Blame It On The Time
TTITLE9=Patsy Cline - Seven Lonely Days
TTITLE10=Johnny Cash - Ballad Of A Teenage Queen
TTITLE11=Gene Autry - Deep In The Heart Of Texas
TTITLE12=Freddy Fender - Before The Next Teardrop Falls
TTITLE13=Hank Locklin - Send Me The Pillow That You Dreem On
EXTD=
EXTT0=
EXTT1=
EXTT2=
EXTT3=
EXTT4=
EXTT5=
EXTT6=
EXTT7=
EXTT8=
EXTT9=
EXTT10=
EXTT11=
EXTT12=
EXTT13=
PLAYORDER=
